# 3ds Max Wavefront OBJ Exporter v0.97b - (c)2007 guruware
# File Created: 21.08.2021 20:42:07

#
# object obj_16626343
#

v  4.057011 0.739841 0.472012
v  4.057011 0.739841 2.760498
v  -3.942989 0.739841 0.472012
v  -3.942989 0.739841 0.472012
v  4.057011 0.739841 2.760498
v  -3.942989 0.739841 2.760498
v  4.057011 0.732043 0.371557
v  4.057011 0.739841 0.472012
v  -3.942989 0.732043 0.371557
v  -3.942989 0.732043 0.371557
v  4.057011 0.739841 0.472012
v  -3.942989 0.739841 0.472012
v  4.057011 0.714238 0.275230
v  4.057011 0.732043 0.371557
v  -3.942989 0.714238 0.275230
v  -3.942989 0.714238 0.275230
v  4.057011 0.732043 0.371557
v  -3.942989 0.732043 0.371557
v  4.057011 0.676416 0.187160
v  4.057011 0.714238 0.275230
v  -3.942989 0.676416 0.187160
v  -3.942989 0.676416 0.187160
v  4.057011 0.714238 0.275230
v  -3.942989 0.714238 0.275230
v  4.057011 0.608570 0.111475
v  4.057011 0.676416 0.187160
v  -3.942989 0.608570 0.111475
v  -3.942989 0.608570 0.111475
v  4.057011 0.676416 0.187160
v  -3.942989 0.676416 0.187160
v  4.057011 0.500692 0.052303
v  4.057011 0.608570 0.111475
v  -3.942989 0.500692 0.052303
v  -3.942989 0.500692 0.052303
v  4.057011 0.608570 0.111475
v  -3.942989 0.608570 0.111475
v  4.057011 0.342775 0.013772
v  4.057011 0.500692 0.052303
v  -3.942989 0.342775 0.013772
v  -3.942989 0.342775 0.013772
v  4.057011 0.500692 0.052303
v  -3.942989 0.500692 0.052303
v  4.057011 0.124810 0.000011
v  4.057011 0.342775 0.013772
v  -3.942989 0.124810 0.000011
v  -3.942989 0.124810 0.000011
v  4.057011 0.342775 0.013772
v  -3.942989 0.342775 0.013772
v  4.057011 -6.583317 0.000011
v  4.057011 0.124810 0.000011
v  -3.942989 -6.583317 0.000011
v  -3.942989 -6.583317 0.000011
v  4.057011 0.124810 0.000011
v  -3.942989 0.124810 0.000011
# 54 vertices

vn 0.000000 -1.000000 0.000015
vn 0.000000 -1.000000 0.000015
vn 0.000000 -1.000000 0.000015
vn 0.000000 -1.000000 0.000015
vn 0.000000 -1.000000 0.000015
vn 0.000000 -1.000000 0.000015
vn 0.000000 -0.991548 0.129741
vn 0.000000 -0.997000 0.077396
vn 0.000000 -0.991548 0.129741
vn 0.000000 -0.991548 0.129741
vn 0.000000 -0.997000 0.077396
vn 0.000000 -0.997000 0.077396
vn 0.000000 -0.957038 0.289964
vn 0.000000 -0.991548 0.129741
vn 0.000000 -0.957038 0.289964
vn 0.000000 -0.957038 0.289964
vn 0.000000 -0.991548 0.129741
vn 0.000000 -0.991548 0.129741
vn 0.000000 -0.842868 0.538121
vn 0.000000 -0.957038 0.289964
vn 0.000000 -0.842868 0.538121
vn 0.000000 -0.842868 0.538121
vn 0.000000 -0.957038 0.289964
vn 0.000000 -0.957038 0.289964
vn 0.000000 -0.621629 0.783312
vn 0.000000 -0.842868 0.538121
vn 0.000000 -0.621629 0.783312
vn 0.000000 -0.621629 0.783312
vn 0.000000 -0.842868 0.538121
vn 0.000000 -0.842868 0.538121
vn 0.000000 -0.362087 0.932144
vn 0.000000 -0.621629 0.783312
vn 0.000000 -0.362087 0.932144
vn 0.000000 -0.362087 0.932144
vn 0.000000 -0.621629 0.783312
vn 0.000000 -0.621629 0.783312
vn 0.000000 -0.150624 0.988591
vn 0.000000 -0.362087 0.932144
vn 0.000000 -0.150624 0.988591
vn 0.000000 -0.150624 0.988591
vn 0.000000 -0.362087 0.932144
vn 0.000000 -0.362087 0.932144
vn 0.000000 -0.031511 0.999503
vn 0.000000 -0.150624 0.988591
vn 0.000000 -0.031511 0.999503
vn 0.000000 -0.031511 0.999503
vn 0.000000 -0.150624 0.988591
vn 0.000000 -0.150624 0.988591
vn 0.000000 -0.000015 1.000000
vn 0.000000 -0.031511 0.999503
vn 0.000000 -0.000015 1.000000
vn 0.000000 -0.000015 1.000000
vn 0.000000 -0.031511 0.999503
vn 0.000000 -0.031511 0.999503
# 54 vertex normals

vt 15.749999 -46.637093 0.000000
vt 15.749998 -36.979393 0.000000
vt -0.250000 -46.637108 0.000000
vt -0.250000 -46.637108 0.000000
vt 15.749998 -36.979393 0.000000
vt -0.250002 -36.979408 0.000000
vt 15.750000 -46.971153 0.000000
vt 15.749999 -46.637093 0.000000
vt -0.250000 -46.971169 0.000000
vt -0.250000 -46.971169 0.000000
vt 15.749999 -46.637093 0.000000
vt -0.250000 -46.637108 0.000000
vt 15.750000 -47.312561 0.000000
vt 15.750000 -46.971153 0.000000
vt -0.250000 -47.312576 0.000000
vt -0.250000 -47.312576 0.000000
vt 15.750000 -46.971153 0.000000
vt -0.250000 -46.971169 0.000000
vt 15.750000 -47.679199 0.000000
vt 15.750000 -47.312561 0.000000
vt -0.250000 -47.679214 0.000000
vt -0.250000 -47.679214 0.000000
vt 15.750000 -47.312561 0.000000
vt -0.250000 -47.312576 0.000000
vt 15.750000 -48.091785 0.000000
vt 15.750000 -47.679199 0.000000
vt -0.249999 -48.091801 0.000000
vt -0.249999 -48.091801 0.000000
vt 15.750000 -47.679199 0.000000
vt -0.250000 -47.679214 0.000000
vt 15.750000 -48.575397 0.000000
vt 15.750000 -48.091785 0.000000
vt -0.249999 -48.575413 0.000000
vt -0.249999 -48.575413 0.000000
vt 15.750000 -48.091785 0.000000
vt -0.249999 -48.091801 0.000000
vt 15.750000 -49.162163 0.000000
vt 15.750000 -48.575397 0.000000
vt -0.249999 -49.162174 0.000000
vt -0.249999 -49.162174 0.000000
vt 15.750000 -48.575397 0.000000
vt -0.249999 -48.575413 0.000000
vt 15.750000 -49.895741 0.000000
vt 15.750000 -49.162163 0.000000
vt -0.249999 -49.895752 0.000000
vt -0.249999 -49.895752 0.000000
vt 15.750000 -49.162163 0.000000
vt -0.249999 -49.162174 0.000000
vt 15.750004 -79.966240 0.000000
vt 15.750000 -49.895741 0.000000
vt -0.249996 -79.966240 0.000000
vt -0.249996 -79.966240 0.000000
vt 15.750000 -49.895741 0.000000
vt -0.249999 -49.895752 0.000000
# 54 texture coords

o obj_16626343
g obj_16626343
f 1/1/1 2/2/2 3/3/3 
f 4/4/4 5/5/5 6/6/6 
f 7/7/7 8/8/8 9/9/9 
f 10/10/10 11/11/11 12/12/12 
f 13/13/13 14/14/14 15/15/15 
f 16/16/16 17/17/17 18/18/18 
f 19/19/19 20/20/20 21/21/21 
f 22/22/22 23/23/23 24/24/24 
f 25/25/25 26/26/26 27/27/27 
f 28/28/28 29/29/29 30/30/30 
f 31/31/31 32/32/32 33/33/33 
f 34/34/34 35/35/35 36/36/36 
f 37/37/37 38/38/38 39/39/39 
f 40/40/40 41/41/41 42/42/42 
f 43/43/43 44/44/44 45/45/45 
f 46/46/46 47/47/47 48/48/48 
f 49/49/49 50/50/50 51/51/51 
f 52/52/52 53/53/53 54/54/54 
# 18 faces

